STARTFONT 2.1
FONT -Adobe-ITC Lubalin Graph-Book-R-Normal--24-240-75-75-P-139-ISO8859-15
SIZE 24 75 75
FONTBOUNDINGBOX 28 29 -1 -5

STARTPROPERTIES 30
FOUNDRY "Adobe"
FAMILY_NAME "ITC Lubalin Graph"
WEIGHT_NAME "Book"
SLANT "R"
SETWIDTH_NAME "Normal"
ADD_STYLE_NAME ""
PIXEL_SIZE 24
POINT_SIZE 240
RESOLUTION_X 75
RESOLUTION_Y 75
SPACING "P"
AVERAGE_WIDTH 139
CHARSET_REGISTRY "ISO8859"
CHARSET_ENCODING "15"
CAP_HEIGHT 18
X_HEIGHT 14
FACE_NAME "ITC Lubalin Graph Book"
COPYRIGHT "Copyright (c) 1984, 1987 Adobe Systems Incorporated. All Rights Reserved. Copyright (c) 1988, 1991 Digital Equipment Corporation. All Rights Reserved."
NOTICE "ITC Lubalin Graph is a registered trademark of International Typeface Corporation."
_DEC_DEVICE_FONTNAMES "PS=LubalinGraph-Book"
_DEC_PRODUCTINFO "DECwindows Fonts V2.2, 07-Nov-1991"
RELATIVE_SETWIDTH 50
RELATIVE_WEIGHT 40
CHARSET_COLLECTIONS "ASCII ISO8859-1 ADOBE-STANDARD"
FULL_NAME "ITC Lubalin Graph Book"
WEIGHT 10
QUAD_WIDTH 16
DEFAULT_CHAR 32
FONT_DESCENT 5
FONT_ASCENT 21
ENDPROPERTIES

CHARS 191

STARTCHAR space
ENCODING 32
SWIDTH 300 0
DWIDTH 7 0
BBX 1 1 0 0
BITMAP
00
ENDCHAR

STARTCHAR exclam
ENCODING 33
SWIDTH 140 0
DWIDTH 6 0
BBX 2 18 2 0
BITMAP
C0
C0
C0
C0
C0
C0
C0
C0
C0
C0
C0
C0
C0
00
00
C0
C0
C0
ENDCHAR

STARTCHAR quotedbl
ENCODING 34
SWIDTH 280 0
DWIDTH 7 0
BBX 5 5 1 13
BITMAP
D8
D8
D8
D8
D8
ENDCHAR

STARTCHAR numbersign
ENCODING 35
SWIDTH 580 0
DWIDTH 15 0
BBX 14 17 0 0
BITMAP
0660
0660
0660
0660
0660
7FFC
7FFC
0CC0
0CC0
0CC0
FFF8
FFF8
1980
1980
1980
1980
1980
ENDCHAR

STARTCHAR dollar
ENCODING 36
SWIDTH 580 0
DWIDTH 14 0
BBX 12 22 1 -2
BITMAP
0600
0600
1FA0
7FE0
E660
C660
C660
C600
E600
7F00
3FC0
07E0
0670
0630
0630
C630
C630
E660
FFE0
DF80
0600
0600
ENDCHAR

STARTCHAR percent
ENCODING 37
SWIDTH 800 0
DWIDTH 19 0
BBX 17 18 1 0
BITMAP
180C00
7E1800
661800
C33000
C33000
C36000
666000
7EC000
18C000
018C00
01BF00
033300
036180
066180
066180
0C3300
0C3F00
180C00
ENDCHAR

STARTCHAR ampersand
ENCODING 38
SWIDTH 720 0
DWIDTH 18 0
BBX 17 19 0 0
BITMAP
070000
1FC000
38E000
306000
306000
18C000
1DC000
0F8000
3F0780
738780
61C600
C0EC00
C07C00
C03800
C03C00
C07E00
60E700
7FC380
1F0180
ENDCHAR

STARTCHAR quoteright
ENCODING 39
SWIDTH 200 0
DWIDTH 5 0
BBX 3 4 1 14
BITMAP
60
60
C0
C0
ENDCHAR

STARTCHAR parenleft
ENCODING 40
SWIDTH 340 0
DWIDTH 9 0
BBX 7 22 1 -4
BITMAP
06
0C
18
30
30
60
60
60
C0
C0
C0
C0
C0
C0
60
60
60
30
30
18
0C
06
ENDCHAR

STARTCHAR parenright
ENCODING 41
SWIDTH 340 0
DWIDTH 9 0
BBX 7 22 0 -4
BITMAP
C0
60
30
18
18
0C
0C
0C
06
06
06
06
06
06
0C
0C
0C
18
18
30
60
C0
ENDCHAR

STARTCHAR asterisk
ENCODING 42
SWIDTH 340 0
DWIDTH 9 0
BBX 7 5 1 13
BITMAP
6C
38
FE
38
6C
ENDCHAR

STARTCHAR plus
ENCODING 43
SWIDTH 660 0
DWIDTH 16 0
BBX 14 14 1 1
BITMAP
0300
0300
0300
0300
0300
0300
FFFC
FFFC
0300
0300
0300
0300
0300
0300
ENDCHAR

STARTCHAR comma
ENCODING 44
SWIDTH 300 0
DWIDTH 7 0
BBX 3 4 2 -2
BITMAP
60
60
C0
C0
ENDCHAR

STARTCHAR minus
ENCODING 45
SWIDTH 660 0
DWIDTH 15 0
BBX 12 2 1 7
BITMAP
FFF0
FFF0
ENDCHAR

STARTCHAR period
ENCODING 46
SWIDTH 300 0
DWIDTH 7 0
BBX 2 3 2 0
BITMAP
C0
C0
C0
ENDCHAR

STARTCHAR slash
ENCODING 47
SWIDTH 580 0
DWIDTH 14 0
BBX 12 22 1 -4
BITMAP
0030
0030
0060
0060
00C0
00C0
0180
0180
0300
0300
0600
0600
0C00
0C00
1800
1800
3000
3000
6000
6000
C000
C000
ENDCHAR

STARTCHAR zero
ENCODING 48
SWIDTH 580 0
DWIDTH 14 0
BBX 12 18 1 0
BITMAP
1F80
7FE0
6060
C030
C030
C030
C030
C030
C030
C030
C030
C030
C030
C030
C030
6060
7FE0
1F80
ENDCHAR

STARTCHAR one
ENCODING 49
SWIDTH 580 0
DWIDTH 14 0
BBX 7 18 3 0
BITMAP
F8
F8
18
18
18
18
18
18
18
18
18
18
18
18
18
18
7E
7E
ENDCHAR

STARTCHAR two
ENCODING 50
SWIDTH 580 0
DWIDTH 14 0
BBX 11 18 1 0
BITMAP
1F00
7FC0
60E0
C060
C060
C060
0060
00C0
01C0
0380
0700
0E00
1C00
3800
7060
E060
FFE0
FFE0
ENDCHAR

STARTCHAR three
ENCODING 51
SWIDTH 580 0
DWIDTH 14 0
BBX 12 18 1 0
BITMAP
0F00
3FC0
30E0
6060
6060
00C0
01C0
0F80
0FC0
00E0
0070
0030
C030
C030
C070
60E0
7FC0
1F00
ENDCHAR

STARTCHAR four
ENCODING 52
SWIDTH 580 0
DWIDTH 14 0
BBX 12 18 0 0
BITMAP
03C0
03C0
06C0
06C0
0CC0
0CC0
18C0
18C0
30C0
30C0
60C0
60C0
FFF0
FFF0
00C0
00C0
03F0
03F0
ENDCHAR

STARTCHAR five
ENCODING 53
SWIDTH 580 0
DWIDTH 14 0
BBX 12 18 1 0
BITMAP
3FE0
3FE0
6000
6000
6000
C000
DF00
FFC0
E0E0
0060
0030
0030
C030
C030
C060
60E0
7FC0
1F00
ENDCHAR

STARTCHAR six
ENCODING 54
SWIDTH 580 0
DWIDTH 14 0
BBX 12 18 1 0
BITMAP
0600
0600
0C00
0C00
1800
1800
3780
3FE0
7060
6030
C030
C030
C030
C030
6060
70E0
3FC0
0F00
ENDCHAR

STARTCHAR seven
ENCODING 55
SWIDTH 580 0
DWIDTH 14 0
BBX 11 18 1 0
BITMAP
FFE0
FFE0
C060
C0C0
00C0
0180
0180
0300
0300
0600
0600
0C00
0C00
1800
1800
1800
3000
3000
ENDCHAR

STARTCHAR eight
ENCODING 56
SWIDTH 580 0
DWIDTH 14 0
BBX 12 18 1 0
BITMAP
0F00
3FC0
30C0
6060
6060
6060
30C0
1F80
3FC0
70E0
6060
C030
C030
C030
C030
6060
7FE0
1F80
ENDCHAR

STARTCHAR nine
ENCODING 57
SWIDTH 580 0
DWIDTH 14 0
BBX 12 18 1 0
BITMAP
0F80
3FC0
7060
6030
C030
C030
C030
C030
6060
7060
3FC0
0FC0
0180
0380
0300
0600
0E00
0C00
ENDCHAR

STARTCHAR colon
ENCODING 58
SWIDTH 300 0
DWIDTH 6 0
BBX 2 13 2 0
BITMAP
C0
C0
C0
00
00
00
00
00
00
00
C0
C0
C0
ENDCHAR

STARTCHAR semicolon
ENCODING 59
SWIDTH 300 0
DWIDTH 7 0
BBX 3 15 2 -2
BITMAP
60
60
60
00
00
00
00
00
00
00
00
60
60
C0
C0
ENDCHAR

STARTCHAR less
ENCODING 60
SWIDTH 660 0
DWIDTH 17 0
BBX 14 15 1 0
BITMAP
000C
003C
00F0
03C0
0F00
3C00
F000
C000
F000
3C00
0F00
03C0
00F0
003C
000C
ENDCHAR

STARTCHAR equal
ENCODING 61
SWIDTH 660 0
DWIDTH 16 0
BBX 13 6 1 4
BITMAP
FFF8
FFF8
0000
0000
FFF8
FFF8
ENDCHAR

STARTCHAR greater
ENCODING 62
SWIDTH 660 0
DWIDTH 17 0
BBX 14 15 1 0
BITMAP
C000
F000
3C00
0F00
03C0
00F0
003C
000C
003C
00F0
03C0
0F00
3C00
F000
C000
ENDCHAR

STARTCHAR question
ENCODING 63
SWIDTH 520 0
DWIDTH 13 0
BBX 10 18 1 0
BITMAP
1F00
7F80
61C0
C0C0
C0C0
00C0
00C0
0180
0380
0700
0600
0C00
0C00
0000
0000
0C00
0C00
0C00
ENDCHAR

STARTCHAR at
ENCODING 64
SWIDTH 900 0
DWIDTH 20 0
BBX 18 18 1 0
BITMAP
03FC00
0FFF00
1C0380
300180
60ECC0
63FCC0
C718C0
C618C0
CC18C0
CC30C0
CC3180
CC7380
CFDF00
678E00
7000C0
3C0380
1FFF00
03FC00
ENDCHAR

STARTCHAR A
ENCODING 65
SWIDTH 820 0
DWIDTH 20 0
BBX 20 18 0 0
BITMAP
03E000
03E000
00F000
00F000
019800
019800
030C00
030C00
060600
060600
0FFF00
0FFF00
180180
180180
3000C0
3000C0
FC03F0
FC03F0
ENDCHAR

STARTCHAR B
ENCODING 66
SWIDTH 580 0
DWIDTH 14 0
BBX 13 18 0 0
BITMAP
FFC0
FFE0
3070
3030
3030
3030
3060
3FC0
3FF0
3038
3018
3018
3018
3018
3038
3070
FFE0
FF80
ENDCHAR

STARTCHAR C
ENCODING 67
SWIDTH 740 0
DWIDTH 18 0
BBX 17 18 0 0
BITMAP
03F980
0FFD80
3C0780
300380
700180
600000
C00000
C00000
C00000
C00000
C00000
C00000
600000
700180
300380
3C0700
0FFE00
03F800
ENDCHAR

STARTCHAR D
ENCODING 68
SWIDTH 720 0
DWIDTH 18 0
BBX 17 18 0 0
BITMAP
FFF000
FFFC00
300E00
300700
300300
300180
300180
300180
300180
300180
300180
300180
300180
300300
300700
300E00
FFFC00
FFF000
ENDCHAR

STARTCHAR E
ENCODING 69
SWIDTH 560 0
DWIDTH 14 0
BBX 13 18 0 0
BITMAP
FFF8
FFF8
3018
3018
3000
3000
3000
3000
3FE0
3FE0
3000
3000
3000
3000
3018
3018
FFF8
FFF8
ENDCHAR

STARTCHAR F
ENCODING 70
SWIDTH 560 0
DWIDTH 14 0
BBX 13 18 0 0
BITMAP
FFF8
FFF8
3018
3018
3000
3000
3000
3000
3FE0
3FE0
3000
3000
3000
3000
3000
3000
FC00
FC00
ENDCHAR

STARTCHAR G
ENCODING 71
SWIDTH 780 0
DWIDTH 18 0
BBX 17 18 0 0
BITMAP
03F980
0FFD80
3C0780
300380
600180
600000
C00000
C00000
C00000
C1FF80
C1FF80
C00180
600180
600380
300780
3C1D80
0FF980
03E180
ENDCHAR

STARTCHAR H
ENCODING 72
SWIDTH 720 0
DWIDTH 18 0
BBX 17 18 0 0
BITMAP
FC1F80
FC1F80
300600
300600
300600
300600
300600
300600
3FFE00
3FFE00
300600
300600
300600
300600
300600
300600
FC1F80
FC1F80
ENDCHAR

STARTCHAR I
ENCODING 73
SWIDTH 300 0
DWIDTH 7 0
BBX 6 18 0 0
BITMAP
FC
FC
30
30
30
30
30
30
30
30
30
30
30
30
30
30
FC
FC
ENDCHAR

STARTCHAR J
ENCODING 74
SWIDTH 520 0
DWIDTH 13 0
BBX 12 18 0 0
BITMAP
03F0
03F0
00C0
00C0
00C0
00C0
00C0
00C0
00C0
00C0
00C0
00C0
00C0
C0C0
C0C0
6180
7F80
1E00
ENDCHAR

STARTCHAR K
ENCODING 75
SWIDTH 700 0
DWIDTH 17 0
BBX 16 18 0 0
BITMAP
FC3F
FC3F
3018
3030
3060
30C0
3180
3300
3600
3F00
3B80
31C0
30E0
3070
3038
301C
FC3F
FC3F
ENDCHAR

STARTCHAR L
ENCODING 76
SWIDTH 520 0
DWIDTH 13 0
BBX 12 18 0 0
BITMAP
FC00
FC00
3000
3000
3000
3000
3000
3000
3000
3000
3000
3000
3000
3030
3030
3030
FFF0
FFF0
ENDCHAR

STARTCHAR M
ENCODING 77
SWIDTH 980 0
DWIDTH 24 0
BBX 23 18 0 0
BITMAP
F8003E
F8003E
3C0078
3C0078
3600D8
3600D8
330198
330198
330198
318318
318318
30C618
30C618
30C618
306C18
306C18
FC387E
FC387E
ENDCHAR

STARTCHAR N
ENCODING 78
SWIDTH 800 0
DWIDTH 20 0
BBX 19 18 0 0
BITMAP
F007E0
F807E0
3C0180
3E0180
360180
330180
338180
318180
30C180
30E180
306180
303180
303980
301980
300D80
300F80
FC0780
FC0380
ENDCHAR

STARTCHAR O
ENCODING 79
SWIDTH 800 0
DWIDTH 20 0
BBX 19 18 0 0
BITMAP
03F800
0FFE00
3C0780
300180
7001C0
6000C0
C00060
C00060
C00060
C00060
C00060
C00060
6000C0
7001C0
300180
3C0780
0FFE00
03F800
ENDCHAR

STARTCHAR P
ENCODING 80
SWIDTH 580 0
DWIDTH 14 0
BBX 13 18 0 0
BITMAP
FFC0
FFF0
3030
3018
3018
3018
3018
3030
3070
3FE0
3F80
3000
3000
3000
3000
3000
FC00
FC00
ENDCHAR

STARTCHAR Q
ENCODING 81
SWIDTH 860 0
DWIDTH 22 0
BBX 21 18 0 0
BITMAP
03F800
0FFE00
3C0780
300180
7001C0
6000C0
C00060
C00060
C00060
C00060
CF8060
FFE060
7078C0
701DC0
300F98
3C07D8
0FFEF8
03F878
ENDCHAR

STARTCHAR R
ENCODING 82
SWIDTH 640 0
DWIDTH 17 0
BBX 16 18 0 0
BITMAP
FFE0
FFF8
3018
300C
300C
300C
300C
300C
301C
33F8
33F0
3180
30C0
30E0
3070
3038
FC1F
FC0F
ENDCHAR

STARTCHAR S
ENCODING 83
SWIDTH 500 0
DWIDTH 13 0
BBX 12 18 1 0
BITMAP
3F60
7FE0
E0E0
C060
C060
C000
E000
7C00
3FC0
07E0
0070
0030
0030
C030
C070
E0E0
FFC0
DF00
ENDCHAR

STARTCHAR T
ENCODING 84
SWIDTH 540 0
DWIDTH 13 0
BBX 12 18 0 0
BITMAP
FFF0
FFF0
C630
C630
0600
0600
0600
0600
0600
0600
0600
0600
0600
0600
0600
0600
1F80
1F80
ENDCHAR

STARTCHAR U
ENCODING 85
SWIDTH 700 0
DWIDTH 17 0
BBX 16 18 0 0
BITMAP
FC3F
FC3F
300C
300C
300C
300C
300C
300C
300C
300C
300C
300C
300C
300C
300C
1818
1FF8
07E0
ENDCHAR

STARTCHAR V
ENCODING 86
SWIDTH 780 0
DWIDTH 19 0
BBX 18 18 0 0
BITMAP
FC0FC0
FC0FC0
300300
300300
180600
180600
180600
0C0C00
0C0C00
0C0C00
061800
061800
033000
033000
033000
01E000
01E000
00C000
ENDCHAR

STARTCHAR W
ENCODING 87
SWIDTH 1040 0
DWIDTH 26 0
BBX 25 18 0 0
BITMAP
FC1C1F80
FC1C1F80
301C0600
30360600
30360600
18360C00
18360C00
18630C00
18630C00
0C631800
0C631800
0CC19800
06C1B000
06C1B000
06C1B000
0380E000
0380E000
0380E000
ENDCHAR

STARTCHAR X
ENCODING 88
SWIDTH 740 0
DWIDTH 18 0
BBX 17 18 0 0
BITMAP
FC1F80
FC1F80
300600
180C00
1C1C00
0E3800
063000
036000
01C000
01C000
036000
063000
0E3800
1C1C00
180C00
300600
FC1F80
FC1F80
ENDCHAR

STARTCHAR Y
ENCODING 89
SWIDTH 680 0
DWIDTH 17 0
BBX 16 18 0 0
BITMAP
FC3F
FC3F
300C
1818
1818
0C30
0C30
0660
0660
03C0
03C0
0180
0180
0180
0180
0180
07E0
07E0
ENDCHAR

STARTCHAR Z
ENCODING 90
SWIDTH 520 0
DWIDTH 13 0
BBX 12 18 0 0
BITMAP
FFF0
FFF0
C060
C0C0
01C0
0180
0300
0600
0E00
0C00
1800
3800
3000
6000
6030
C030
FFF0
FFF0
ENDCHAR

STARTCHAR bracketleft
ENCODING 91
SWIDTH 300 0
DWIDTH 7 0
BBX 5 22 1 -4
BITMAP
F8
F8
C0
C0
C0
C0
C0
C0
C0
C0
C0
C0
C0
C0
C0
C0
C0
C0
C0
C0
F8
F8
ENDCHAR

STARTCHAR backslash
ENCODING 92
SWIDTH 580 0
DWIDTH 11 0
BBX 8 18 1 0
BITMAP
C0
C0
C0
60
60
30
30
30
18
18
0C
0C
0C
06
06
03
03
03
ENDCHAR

STARTCHAR bracketright
ENCODING 93
SWIDTH 300 0
DWIDTH 7 0
BBX 5 22 0 -4
BITMAP
F8
F8
18
18
18
18
18
18
18
18
18
18
18
18
18
18
18
18
18
18
F8
F8
ENDCHAR

STARTCHAR asciicircum
ENCODING 94
SWIDTH 660 0
DWIDTH 17 0
BBX 13 12 2 6
BITMAP
0700
0700
0D80
0D80
18C0
18C0
3060
3060
6030
6030
C018
C018
ENDCHAR

STARTCHAR underscore
ENCODING 95
SWIDTH 500 0
DWIDTH 13 0
BBX 13 2 0 -3
BITMAP
FFF8
FFF8
ENDCHAR

STARTCHAR quoteleft
ENCODING 96
SWIDTH 200 0
DWIDTH 5 0
BBX 3 4 1 14
BITMAP
C0
C0
60
60
ENDCHAR

STARTCHAR a
ENCODING 97
SWIDTH 660 0
DWIDTH 16 0
BBX 15 14 0 0
BITMAP
0F9E
3FDE
7078
6038
C018
C018
C018
C018
C018
C018
6038
7078
3FDE
0F9E
ENDCHAR

STARTCHAR b
ENCODING 98
SWIDTH 660 0
DWIDTH 16 0
BBX 15 18 0 0
BITMAP
F000
F000
3000
3000
33E0
37F8
3C1C
380C
3006
3006
3006
3006
3006
3006
380C
3C1C
F7F8
F3E0
ENDCHAR

STARTCHAR c
ENCODING 99
SWIDTH 560 0
DWIDTH 14 0
BBX 13 14 0 0
BITMAP
0FB0
3FF0
7070
6030
C000
C000
C000
C000
C000
C018
6038
7070
3FE0
0F80
ENDCHAR

STARTCHAR d
ENCODING 100
SWIDTH 660 0
DWIDTH 16 0
BBX 15 18 0 0
BITMAP
0078
0078
0018
0018
0F98
3FD8
7078
6038
C018
C018
C018
C018
C018
C018
6038
7078
3FDE
0F9E
ENDCHAR

STARTCHAR e
ENCODING 101
SWIDTH 580 0
DWIDTH 14 0
BBX 13 14 0 0
BITMAP
0F80
3FE0
7070
6030
C018
C018
FFF8
FFF8
C000
C000
6030
7070
3FE0
0F80
ENDCHAR

STARTCHAR f
ENCODING 102
SWIDTH 300 0
DWIDTH 7 0
BBX 7 18 0 0
BITMAP
0E
1E
38
30
FC
FC
30
30
30
30
30
30
30
30
30
30
FC
FC
ENDCHAR

STARTCHAR g
ENCODING 103
SWIDTH 660 0
DWIDTH 16 0
BBX 15 18 0 -4
BITMAP
0F9E
3FDE
7078
6038
C018
C018
C018
C018
C018
C018
6038
7078
3FD8
0F98
6018
7030
3FF0
0FC0
ENDCHAR

STARTCHAR h
ENCODING 104
SWIDTH 640 0
DWIDTH 16 0
BBX 16 18 0 0
BITMAP
F000
F000
3000
3000
33E0
37F8
3C1C
380C
300C
300C
300C
300C
300C
300C
300C
300C
FC3F
FC3F
ENDCHAR

STARTCHAR i
ENCODING 105
SWIDTH 260 0
DWIDTH 6 0
BBX 6 18 0 0
BITMAP
30
30
30
00
F0
F0
30
30
30
30
30
30
30
30
30
30
FC
FC
ENDCHAR

STARTCHAR j
ENCODING 106
SWIDTH 240 0
DWIDTH 6 0
BBX 5 22 -1 -4
BITMAP
18
18
18
00
78
78
18
18
18
18
18
18
18
18
18
18
18
18
18
38
F0
E0
ENDCHAR

STARTCHAR k
ENCODING 107
SWIDTH 580 0
DWIDTH 15 0
BBX 14 18 0 0
BITMAP
F000
F000
3000
3000
30FC
30FC
3060
30C0
3180
3300
3600
3F00
3B80
31C0
30E0
3070
FCFC
FCFC
ENDCHAR

STARTCHAR l
ENCODING 108
SWIDTH 280 0
DWIDTH 7 0
BBX 6 18 0 0
BITMAP
F0
F0
30
30
30
30
30
30
30
30
30
30
30
30
30
30
FC
FC
ENDCHAR

STARTCHAR m
ENCODING 109
SWIDTH 980 0
DWIDTH 25 0
BBX 24 14 0 0
BITMAP
F3C1E0
F7F3F8
3C3E1C
381C0C
30180C
30180C
30180C
30180C
30180C
30180C
30180C
30180C
FC7E3F
FC7E3F
ENDCHAR

STARTCHAR n
ENCODING 110
SWIDTH 660 0
DWIDTH 17 0
BBX 16 14 0 0
BITMAP
F3E0
F7F8
3C1C
380C
300C
300C
300C
300C
300C
300C
300C
300C
FC3F
FC3F
ENDCHAR

STARTCHAR o
ENCODING 111
SWIDTH 580 0
DWIDTH 14 0
BBX 13 14 0 0
BITMAP
0F80
3FE0
7070
6030
C018
C018
C018
C018
C018
C018
6030
7070
3FE0
0F80
ENDCHAR

STARTCHAR p
ENCODING 112
SWIDTH 660 0
DWIDTH 16 0
BBX 15 18 0 -4
BITMAP
F3E0
F7F8
3C1C
380C
3006
3006
3006
3006
3006
3006
380C
3C1C
37F8
33E0
3000
3000
FC00
FC00
ENDCHAR

STARTCHAR q
ENCODING 113
SWIDTH 660 0
DWIDTH 16 0
BBX 15 18 0 -4
BITMAP
0F9E
3FDE
7078
6038
C018
C018
C018
C018
C018
C018
6038
7078
3FD8
0F98
0018
0018
007E
007E
ENDCHAR

STARTCHAR r
ENCODING 114
SWIDTH 360 0
DWIDTH 10 0
BBX 9 14 0 0
BITMAP
F380
F780
3C00
3800
3000
3000
3000
3000
3000
3000
3000
3000
FC00
FC00
ENDCHAR

STARTCHAR s
ENCODING 115
SWIDTH 420 0
DWIDTH 10 0
BBX 9 14 0 0
BITMAP
3B00
7F00
E700
C300
C000
E000
7C00
1F00
0380
0180
C180
E380
FF00
DE00
ENDCHAR

STARTCHAR t
ENCODING 116
SWIDTH 320 0
DWIDTH 9 0
BBX 8 18 0 0
BITMAP
18
18
18
18
FF
FF
18
18
18
18
18
18
18
18
18
18
1F
1F
ENDCHAR

STARTCHAR u
ENCODING 117
SWIDTH 640 0
DWIDTH 16 0
BBX 15 14 0 0
BITMAP
F078
F078
3018
3018
3018
3018
3018
3018
3018
3018
3038
3878
1FDE
079E
ENDCHAR

STARTCHAR v
ENCODING 118
SWIDTH 640 0
DWIDTH 16 0
BBX 15 14 0 0
BITMAP
FC7E
FC7E
3018
3018
1830
1830
1830
0C60
0C60
0C60
06C0
06C0
0380
0380
ENDCHAR

STARTCHAR w
ENCODING 119
SWIDTH 900 0
DWIDTH 22 0
BBX 22 14 0 0
BITMAP
FC00FC
FC30FC
303030
307830
187860
18CC60
18CC60
0CCCC0
0CCCC0
0D86C0
078780
078780
030300
030300
ENDCHAR

STARTCHAR x
ENCODING 120
SWIDTH 600 0
DWIDTH 15 0
BBX 14 14 0 0
BITMAP
FCFC
FCFC
3030
1860
0CC0
0780
0300
0780
0CC0
1860
1860
3030
FCFC
FCFC
ENDCHAR

STARTCHAR y
ENCODING 121
SWIDTH 640 0
DWIDTH 16 0
BBX 15 18 0 -4
BITMAP
FC7E
FC7E
3018
3018
1830
1830
0C60
0C60
06C0
06C0
0380
0380
0300
0300
0600
0600
1F80
1F80
ENDCHAR

STARTCHAR z
ENCODING 122
SWIDTH 420 0
DWIDTH 11 0
BBX 10 14 0 0
BITMAP
FFC0
FFC0
C180
C300
0600
0600
0C00
1800
1800
3000
60C0
60C0
FFC0
FFC0
ENDCHAR

STARTCHAR braceleft
ENCODING 123
SWIDTH 300 0
DWIDTH 8 0
BBX 6 22 1 -4
BITMAP
0C
18
30
30
30
30
30
30
30
20
C0
20
30
30
30
30
30
30
30
30
18
0C
ENDCHAR

STARTCHAR bar
ENCODING 124
SWIDTH 660 0
DWIDTH 17 0
BBX 2 19 6 0
BITMAP
C0
C0
C0
C0
C0
C0
C0
C0
C0
C0
C0
C0
C0
C0
C0
C0
C0
C0
C0
ENDCHAR

STARTCHAR braceright
ENCODING 125
SWIDTH 300 0
DWIDTH 8 0
BBX 6 22 0 -4
BITMAP
C0
60
30
30
30
30
30
30
30
10
0C
10
30
30
30
30
30
30
30
30
60
C0
ENDCHAR

STARTCHAR asciitilde
ENCODING 126
SWIDTH 660 0
DWIDTH 17 0
BBX 13 4 1 6
BITMAP
3818
7F18
C7F0
C0E0
ENDCHAR

STARTCHAR space
ENCODING 160
SWIDTH 300 0
DWIDTH 7 0
BBX 1 1 0 0
BITMAP
00
ENDCHAR

STARTCHAR exclamdown
ENCODING 161
SWIDTH 140 0
DWIDTH 6 0
BBX 2 19 2 -5
BITMAP
C0
C0
C0
00
00
C0
C0
C0
C0
C0
C0
C0
C0
C0
C0
C0
C0
C0
C0
ENDCHAR

STARTCHAR cent
ENCODING 162
SWIDTH 580 0
DWIDTH 13 0
BBX 11 15 1 1
BITMAP
0600
0600
1F60
7FE0
66E0
C660
C600
C600
C600
C660
66E0
7FC0
3F80
0600
0600
ENDCHAR

STARTCHAR sterling
ENCODING 163
SWIDTH 640 0
DWIDTH 15 0
BBX 13 18 1 0
BITMAP
1FB0
3FF0
7070
6030
6030
6000
7000
3800
FFC0
FFC0
0C00
0C00
0C18
0C18
0C18
1830
FFF0
FFC0
ENDCHAR

STARTCHAR EuroSign
ENCODING 164
SWIDTH 583 0
DWIDTH 14 0
BBX 12 14 1 0
BITMAP
0F90
1070
2010
4010
4000
FF80
4000
FF80
4000
4000
2000
2000
1830
07C0
ENDCHAR

STARTCHAR yen
ENCODING 165
SWIDTH 740 0
DWIDTH 17 0
BBX 16 18 0 0
BITMAP
FC3F
FC3F
300C
1818
1818
0C30
0C30
7E7E
7E7E
03C0
7FFE
7FFE
0180
0180
0180
0180
0FF0
0FF0
ENDCHAR

STARTCHAR Scaron
ENCODING 166
SWIDTH 500 0
DWIDTH 13 0
BBX 12 24 1 0
BITMAP
30C0
1980
0F00
0600
0000
0000
3F60
7FE0
E0E0
C060
C060
C000
E000
7C00
3FC0
07E0
0070
0030
0030
C030
C070
E0E0
FFC0
DF00
ENDCHAR

STARTCHAR section
ENCODING 167
SWIDTH 440 0
DWIDTH 11 0
BBX 9 21 1 -3
BITMAP
3E00
7F00
E380
C180
C000
6000
3E00
7F00
E380
C180
C180
E380
7F00
3E00
0700
0180
0180
C180
E380
7F00
3E00
ENDCHAR

STARTCHAR scaron
ENCODING 168
SWIDTH 420 0
DWIDTH 10 0
BBX 9 20 0 0
BITMAP
6180
3300
1E00
0C00
0000
0000
3B00
7F00
E700
C300
C000
E000
7C00
1F00
0380
0180
C180
E380
FF00
DE00
ENDCHAR

STARTCHAR copyright
ENCODING 169
SWIDTH 820 0
DWIDTH 20 0
BBX 18 18 1 0
BITMAP
07F800
1FFE00
380700
61E180
67F980
C61CC0
CC0CC0
CC00C0
CC00C0
CC00C0
CC0CC0
CC0CC0
C618C0
67F980
61E180
380700
1FFE00
07F800
ENDCHAR

STARTCHAR ordfeminine
ENCODING 170
SWIDTH 420 0
DWIDTH 10 0
BBX 9 10 0 8
BITMAP
3D80
6700
C300
8300
8300
C300
6700
3D80
0000
FF80
ENDCHAR

STARTCHAR guillemotleft
ENCODING 171
SWIDTH 320 0
DWIDTH 9 0
BBX 7 10 1 2
BITMAP
36
36
6C
6C
D8
D8
6C
6C
36
36
ENDCHAR

STARTCHAR logicalnot
ENCODING 172
SWIDTH 660 0
DWIDTH 17 0
BBX 14 7 1 4
BITMAP
FFFC
FFFC
000C
000C
000C
000C
000C
ENDCHAR

STARTCHAR hyphen
ENCODING 173
SWIDTH 300 0
DWIDTH 8 0
BBX 7 2 0 5
BITMAP
FE
FE
ENDCHAR

STARTCHAR registered
ENCODING 174
SWIDTH 820 0
DWIDTH 20 0
BBX 18 18 1 0
BITMAP
07F800
1FFE00
380700
67F180
67F980
C618C0
C618C0
C618C0
C7F0C0
C7E0C0
C630C0
C630C0
C618C0
661980
600180
380700
1FFE00
07F800
ENDCHAR

STARTCHAR macron
ENCODING 175
SWIDTH 460 0
DWIDTH 11 0
BBX 9 2 1 16
BITMAP
FF80
FF80
ENDCHAR

STARTCHAR degree
ENCODING 176
SWIDTH 400 0
DWIDTH 9 0
BBX 8 7 0 11
BITMAP
3C
66
C3
C3
C3
66
3C
ENDCHAR

STARTCHAR plusminus
ENCODING 177
SWIDTH 660 0
DWIDTH 16 0
BBX 14 14 1 1
BITMAP
0300
0300
0300
0300
FFFC
FFFC
0300
0300
0300
0300
0000
0000
FFFC
FFFC
ENDCHAR

STARTCHAR twosuperior
ENCODING 178
SWIDTH 348 0
DWIDTH 8 0
BBX 7 11 0 7
BITMAP
7C
FE
C6
06
0C
18
30
60
C2
FE
FE
ENDCHAR

STARTCHAR threesuperior
ENCODING 179
SWIDTH 348 0
DWIDTH 8 0
BBX 7 11 0 7
BITMAP
7C
FE
C6
06
1C
1C
06
06
C6
FE
7C
ENDCHAR

STARTCHAR Zcaron
ENCODING 180
SWIDTH 520 0
DWIDTH 13 0
BBX 12 24 0 0
BITMAP
30C0
1980
0F00
0600
0000
0000
FFF0
FFF0
C060
C0C0
01C0
0180
0300
0600
0E00
0C00
1800
3800
3000
6000
6030
C030
FFF0
FFF0
ENDCHAR

STARTCHAR mu
ENCODING 181
SWIDTH 640 0
DWIDTH 16 0
BBX 15 18 0 -4
BITMAP
F078
F078
3018
3018
3018
3018
3018
3018
3018
3018
3038
3878
3FDE
379E
3000
3000
3000
3000
ENDCHAR

STARTCHAR paragraph
ENCODING 182
SWIDTH 500 0
DWIDTH 13 0
BBX 11 21 1 -3
BITMAP
3FE0
7FE0
FD80
FD80
FD80
FD80
7D80
3D80
0D80
0D80
0D80
0D80
0D80
0D80
0D80
0D80
0D80
0D80
0D80
0D80
0D80
ENDCHAR

STARTCHAR periodcentered
ENCODING 183
SWIDTH 300 0
DWIDTH 7 0
BBX 2 3 2 6
BITMAP
C0
C0
C0
ENDCHAR

STARTCHAR zcaron
ENCODING 184
SWIDTH 420 0
DWIDTH 11 0
BBX 10 20 0 0
BITMAP
6180
3300
1E00
0C00
0000
0000
FFC0
FFC0
C180
C300
0600
0600
0C00
1800
1800
3000
60C0
60C0
FFC0
FFC0
ENDCHAR

STARTCHAR onesuperior
ENCODING 185
SWIDTH 348 0
DWIDTH 8 0
BBX 6 11 0 7
BITMAP
F0
F0
30
30
30
30
30
30
30
FC
FC
ENDCHAR

STARTCHAR ordmasculine
ENCODING 186
SWIDTH 340 0
DWIDTH 9 0
BBX 8 10 0 8
BITMAP
3C
66
C3
C3
C3
C3
66
3C
00
FF
ENDCHAR

STARTCHAR guillemotright
ENCODING 187
SWIDTH 320 0
DWIDTH 9 0
BBX 7 10 1 2
BITMAP
D8
D8
6C
6C
36
36
6C
6C
D8
D8
ENDCHAR

STARTCHAR Ligature_OE
ENCODING 188
SWIDTH 1120 0
DWIDTH 28 0
BBX 27 18 0 0
BITMAP
03F8FFE0
0FFEFFE0
3C07C060
3001C060
7001C000
6000C000
C000C000
C000C000
C000FF80
C000FF80
C000C000
C000C000
6000C000
7001C000
3001C060
3C07C060
0FFEFFE0
03F8FFE0
ENDCHAR

STARTCHAR Ligature_oe
ENCODING 189
SWIDTH 1060 0
DWIDTH 25 0
BBX 24 14 0 0
BITMAP
0F81F0
3FE7FC
70760E
603C06
C01803
C01803
C01FFF
C01FFF
C01800
C01800
603C06
70760E
3FE7FC
0F81F0
ENDCHAR

STARTCHAR Ydiaeresis
ENCODING 190
SWIDTH 680 0
DWIDTH 17 0
BBX 16 23 0 0
BITMAP
0660
0660
0660
0000
0000
FC3F
FC3F
300C
1818
1818
0C30
0C30
0660
0660
03C0
03C0
0180
0180
0180
0180
0180
07E0
07E0
ENDCHAR

STARTCHAR questiondown
ENCODING 191
SWIDTH 520 0
DWIDTH 13 0
BBX 11 18 1 -4
BITMAP
0C00
0C00
0C00
0000
0000
0C00
0C00
1800
1800
3000
6000
C000
C000
C060
C060
60C0
7FC0
1F00
ENDCHAR

STARTCHAR Agrave
ENCODING 192
SWIDTH 820 0
DWIDTH 20 0
BBX 20 24 0 0
BITMAP
060000
030000
018000
00C000
000000
000000
03E000
03E000
00F000
00F000
019800
019800
030C00
030C00
060600
060600
0FFF00
0FFF00
180180
180180
3000C0
3000C0
FC03F0
FC03F0
ENDCHAR

STARTCHAR Aacute
ENCODING 193
SWIDTH 820 0
DWIDTH 20 0
BBX 20 24 0 0
BITMAP
001800
003000
006000
00C000
000000
000000
03E000
03E000
00F000
00F000
019800
019800
030C00
030C00
060600
060600
0FFF00
0FFF00
180180
180180
3000C0
3000C0
FC03F0
FC03F0
ENDCHAR

STARTCHAR Acircumflex
ENCODING 194
SWIDTH 820 0
DWIDTH 20 0
BBX 20 24 0 0
BITMAP
00C000
01E000
033000
061800
000000
000000
03E000
03E000
00F000
00F000
019800
019800
030C00
030C00
060600
060600
0FFF00
0FFF00
180180
180180
3000C0
3000C0
FC03F0
FC03F0
ENDCHAR

STARTCHAR Atilde
ENCODING 195
SWIDTH 820 0
DWIDTH 20 0
BBX 20 23 0 0
BITMAP
01C600
03FC00
063800
000000
000000
03E000
03E000
00F000
00F000
019800
019800
030C00
030C00
060600
060600
0FFF00
0FFF00
180180
180180
3000C0
3000C0
FC03F0
FC03F0
ENDCHAR

STARTCHAR Adieresis
ENCODING 196
SWIDTH 820 0
DWIDTH 20 0
BBX 20 23 0 0
BITMAP
033000
033000
033000
000000
000000
03E000
03E000
00F000
00F000
019800
019800
030C00
030C00
060600
060600
0FFF00
0FFF00
180180
180180
3000C0
3000C0
FC03F0
FC03F0
ENDCHAR

STARTCHAR Aring
ENCODING 197
SWIDTH 820 0
DWIDTH 20 0
BBX 20 24 0 0
BITMAP
01E000
033000
021000
033000
01E000
000000
03E000
03E000
00F000
00F000
019800
019800
030C00
030C00
060600
060600
0FFF00
0FFF00
180180
180180
3000C0
3000C0
FC03F0
FC03F0
ENDCHAR

STARTCHAR AE
ENCODING 198
SWIDTH 1000 0
DWIDTH 25 0
BBX 24 18 0 0
BITMAP
01FFFF
01FFFF
003603
006603
006600
00C600
00C600
018600
0387FC
0307FC
07FE00
0FFE00
0C0600
180600
180603
300603
FC1FFF
FC1FFF
ENDCHAR

STARTCHAR Ccedilla
ENCODING 199
SWIDTH 740 0
DWIDTH 18 0
BBX 17 23 0 -5
BITMAP
03F980
0FFD80
3C0780
300380
700180
600000
C00000
C00000
C00000
C00000
C00000
C00000
600000
700180
300380
3C0700
0FFE00
03F800
018000
03C000
006000
03E000
01C000
ENDCHAR

STARTCHAR Egrave
ENCODING 200
SWIDTH 560 0
DWIDTH 14 0
BBX 13 24 0 0
BITMAP
0C00
0600
0300
0180
0000
0000
FFF8
FFF8
3018
3018
3000
3000
3000
3000
3FE0
3FE0
3000
3000
3000
3000
3018
3018
FFF8
FFF8
ENDCHAR

STARTCHAR Eacute
ENCODING 201
SWIDTH 560 0
DWIDTH 14 0
BBX 13 24 0 0
BITMAP
0060
00C0
0180
0300
0000
0000
FFF8
FFF8
3018
3018
3000
3000
3000
3000
3FE0
3FE0
3000
3000
3000
3000
3018
3018
FFF8
FFF8
ENDCHAR

STARTCHAR Ecircumflex
ENCODING 202
SWIDTH 560 0
DWIDTH 14 0
BBX 13 24 0 0
BITMAP
0300
0780
0CC0
1860
0000
0000
FFF8
FFF8
3018
3018
3000
3000
3000
3000
3FE0
3FE0
3000
3000
3000
3000
3018
3018
FFF8
FFF8
ENDCHAR

STARTCHAR Edieresis
ENCODING 203
SWIDTH 560 0
DWIDTH 14 0
BBX 13 23 0 0
BITMAP
0CC0
0CC0
0CC0
0000
0000
FFF8
FFF8
3018
3018
3000
3000
3000
3000
3FE0
3FE0
3000
3000
3000
3000
3018
3018
FFF8
FFF8
ENDCHAR

STARTCHAR Igrave
ENCODING 204
SWIDTH 300 0
DWIDTH 7 0
BBX 6 24 0 0
BITMAP
C0
60
30
18
00
00
FC
FC
30
30
30
30
30
30
30
30
30
30
30
30
30
30
FC
FC
ENDCHAR

STARTCHAR Iacute
ENCODING 205
SWIDTH 300 0
DWIDTH 7 0
BBX 6 24 0 0
BITMAP
0C
18
30
60
00
00
FC
FC
30
30
30
30
30
30
30
30
30
30
30
30
30
30
FC
FC
ENDCHAR

STARTCHAR Icircumflex
ENCODING 206
SWIDTH 300 0
DWIDTH 7 0
BBX 7 24 0 0
BITMAP
10
38
6C
C6
00
00
FC
FC
30
30
30
30
30
30
30
30
30
30
30
30
30
30
FC
FC
ENDCHAR

STARTCHAR Idieresis
ENCODING 207
SWIDTH 300 0
DWIDTH 7 0
BBX 6 23 0 0
BITMAP
CC
CC
CC
00
00
FC
FC
30
30
30
30
30
30
30
30
30
30
30
30
30
30
FC
FC
ENDCHAR

STARTCHAR Eth
ENCODING 208
SWIDTH 720 0
DWIDTH 18 0
BBX 17 18 0 0
BITMAP
FFF000
FFFC00
300E00
300700
300300
300180
300180
300180
FF0180
FF0180
300180
300180
300180
300300
300700
300E00
FFFC00
FFF000
ENDCHAR

STARTCHAR Ntilde
ENCODING 209
SWIDTH 800 0
DWIDTH 20 0
BBX 19 23 0 0
BITMAP
038C00
07F800
0C7000
000000
000000
F007E0
F807E0
3C0180
3E0180
360180
330180
338180
318180
30C180
30E180
306180
303180
303980
301980
300D80
300F80
FC0780
FC0380
ENDCHAR

STARTCHAR Ograve
ENCODING 210
SWIDTH 800 0
DWIDTH 20 0
BBX 19 24 0 0
BITMAP
030000
018000
00C000
006000
000000
000000
03F800
0FFE00
3C0780
300180
7001C0
6000C0
C00060
C00060
C00060
C00060
C00060
C00060
6000C0
7001C0
300180
3C0780
0FFE00
03F800
ENDCHAR

STARTCHAR Oacute
ENCODING 211
SWIDTH 800 0
DWIDTH 20 0
BBX 19 24 0 0
BITMAP
000C00
001800
003000
006000
000000
000000
03F800
0FFE00
3C0780
300180
7001C0
6000C0
C00060
C00060
C00060
C00060
C00060
C00060
6000C0
7001C0
300180
3C0780
0FFE00
03F800
ENDCHAR

STARTCHAR Ocircumflex
ENCODING 212
SWIDTH 800 0
DWIDTH 20 0
BBX 19 24 0 0
BITMAP
006000
00F000
019800
030C00
000000
000000
03F800
0FFE00
3C0780
300180
7001C0
6000C0
C00060
C00060
C00060
C00060
C00060
C00060
6000C0
7001C0
300180
3C0780
0FFE00
03F800
ENDCHAR

STARTCHAR Otilde
ENCODING 213
SWIDTH 800 0
DWIDTH 20 0
BBX 19 23 0 0
BITMAP
01C600
03FC00
063800
000000
000000
03F800
0FFE00
3C0780
300180
7001C0
6000C0
C00060
C00060
C00060
C00060
C00060
C00060
6000C0
7001C0
300180
3C0780
0FFE00
03F800
ENDCHAR

STARTCHAR Odieresis
ENCODING 214
SWIDTH 800 0
DWIDTH 20 0
BBX 19 23 0 0
BITMAP
031800
031800
031800
000000
000000
03F800
0FFE00
3C0780
300180
7001C0
6000C0
C00060
C00060
C00060
C00060
C00060
C00060
6000C0
7001C0
300180
3C0780
0FFE00
03F800
ENDCHAR

STARTCHAR multiply
ENCODING 215
SWIDTH 660 0
DWIDTH 16 0
BBX 13 13 1 1
BITMAP
4010
E038
7070
38E0
1DC0
0F80
0700
0F80
1DC0
38E0
7070
E038
4010
ENDCHAR

STARTCHAR Oslash
ENCODING 216
SWIDTH 800 0
DWIDTH 20 0
BBX 19 18 0 0
BITMAP
03F860
0FFEC0
3C0780
300380
7007C0
600CC0
C01860
C03060
C06060
C0C060
C18060
C30060
6600C0
7C01C0
380180
3C0780
6FFE00
C3F800
ENDCHAR

STARTCHAR Ugrave
ENCODING 217
SWIDTH 700 0
DWIDTH 17 0
BBX 16 24 0 0
BITMAP
0600
0300
0180
00C0
0000
0000
FC3F
FC3F
300C
300C
300C
300C
300C
300C
300C
300C
300C
300C
300C
300C
300C
1818
1FF8
07E0
ENDCHAR

STARTCHAR Uacute
ENCODING 218
SWIDTH 700 0
DWIDTH 17 0
BBX 16 24 0 0
BITMAP
0030
0060
00C0
0180
0000
0000
FC3F
FC3F
300C
300C
300C
300C
300C
300C
300C
300C
300C
300C
300C
300C
300C
1818
1FF8
07E0
ENDCHAR

STARTCHAR Ucircumflex
ENCODING 219
SWIDTH 700 0
DWIDTH 17 0
BBX 16 24 0 0
BITMAP
0180
03C0
0660
0C30
0000
0000
FC3F
FC3F
300C
300C
300C
300C
300C
300C
300C
300C
300C
300C
300C
300C
300C
1818
1FF8
07E0
ENDCHAR

STARTCHAR Udieresis
ENCODING 220
SWIDTH 700 0
DWIDTH 17 0
BBX 16 23 0 0
BITMAP
0660
0660
0660
0000
0000
FC3F
FC3F
300C
300C
300C
300C
300C
300C
300C
300C
300C
300C
300C
300C
300C
1818
1FF8
07E0
ENDCHAR

STARTCHAR Yacute
ENCODING 221
SWIDTH 680 0
DWIDTH 17 0
BBX 16 24 0 0
BITMAP
0018
0030
0060
00C0
0000
0000
FC3F
FC3F
300C
1818
1818
0C30
0C30
0660
0660
03C0
03C0
0180
0180
0180
0180
0180
07E0
07E0
ENDCHAR

STARTCHAR Thorn
ENCODING 222
SWIDTH 580 0
DWIDTH 14 0
BBX 13 18 0 0
BITMAP
FC00
FC00
3000
3FC0
3FF0
3030
3018
3018
3018
3018
3030
3070
3FE0
3F80
3000
3000
FC00
FC00
ENDCHAR

STARTCHAR germandbls
ENCODING 223
SWIDTH 580 0
DWIDTH 15 0
BBX 14 18 0 0
BITMAP
0780
1FE0
1870
3030
3030
3030
3060
33C0
33F0
3038
301C
300C
300C
300C
300C
3318
F3F8
F1E0
ENDCHAR

STARTCHAR agrave
ENCODING 224
SWIDTH 660 0
DWIDTH 16 0
BBX 15 19 0 0
BITMAP
0600
0300
0180
00C0
0000
0F9E
3FDE
7078
6038
C018
C018
C018
C018
C018
C018
6038
7078
3FDE
0F9E
ENDCHAR

STARTCHAR aacute
ENCODING 225
SWIDTH 660 0
DWIDTH 16 0
BBX 15 19 0 0
BITMAP
00C0
0180
0300
0600
0000
0F9E
3FDE
7078
6038
C018
C018
C018
C018
C018
C018
6038
7078
3FDE
0F9E
ENDCHAR

STARTCHAR acircumflex
ENCODING 226
SWIDTH 660 0
DWIDTH 16 0
BBX 15 19 0 0
BITMAP
0300
0780
0CC0
1860
0000
0F9E
3FDE
7078
6038
C018
C018
C018
C018
C018
C018
6038
7078
3FDE
0F9E
ENDCHAR

STARTCHAR atilde
ENCODING 227
SWIDTH 660 0
DWIDTH 16 0
BBX 15 19 0 0
BITMAP
0E30
1FE0
31C0
0000
0000
0F9E
3FDE
7078
6038
C018
C018
C018
C018
C018
C018
6038
7078
3FDE
0F9E
ENDCHAR

STARTCHAR adieresis
ENCODING 228
SWIDTH 660 0
DWIDTH 16 0
BBX 15 19 0 0
BITMAP
0CC0
0CC0
0CC0
0000
0000
0F9E
3FDE
7078
6038
C018
C018
C018
C018
C018
C018
6038
7078
3FDE
0F9E
ENDCHAR

STARTCHAR aring
ENCODING 229
SWIDTH 660 0
DWIDTH 16 0
BBX 15 20 0 0
BITMAP
0780
0CC0
0840
0CC0
0780
0000
0F9E
3FDE
7078
6038
C018
C018
C018
C018
C018
C018
6038
7078
3FDE
0F9E
ENDCHAR

STARTCHAR ae
ENCODING 230
SWIDTH 1060 0
DWIDTH 25 0
BBX 24 14 0 0
BITMAP
0F99F0
3FDBFC
707E0E
603C06
C01803
C01803
C01FFF
C01FFF
C01800
C01800
603C06
707E0E
3FDBFC
0F99F0
ENDCHAR

STARTCHAR ccedilla
ENCODING 231
SWIDTH 560 0
DWIDTH 14 0
BBX 13 19 0 -5
BITMAP
0FD8
3FF8
7038
6018
C000
C000
C000
C000
C000
C018
6038
7070
3FE0
0F80
0600
0F00
0180
0F80
0700
ENDCHAR

STARTCHAR egrave
ENCODING 232
SWIDTH 580 0
DWIDTH 14 0
BBX 13 19 0 0
BITMAP
0C00
0600
0300
0180
0000
0F80
3FE0
7070
6030
C018
C018
FFF8
FFF8
C000
C000
6030
7070
3FE0
0F80
ENDCHAR

STARTCHAR eacute
ENCODING 233
SWIDTH 580 0
DWIDTH 14 0
BBX 13 19 0 0
BITMAP
0180
0300
0600
0C00
0000
0F80
3FE0
7070
6030
C018
C018
FFF8
FFF8
C000
C000
6030
7070
3FE0
0F80
ENDCHAR

STARTCHAR ecircumflex
ENCODING 234
SWIDTH 580 0
DWIDTH 14 0
BBX 13 19 0 0
BITMAP
0600
0F00
1980
30C0
0000
0F80
3FE0
7070
6030
C018
C018
FFF8
FFF8
C000
C000
6030
7070
3FE0
0F80
ENDCHAR

STARTCHAR edieresis
ENCODING 235
SWIDTH 580 0
DWIDTH 14 0
BBX 13 19 0 0
BITMAP
1980
1980
1980
0000
0000
0F80
3FE0
7070
6030
C018
C018
FFF8
FFF8
C000
C000
6030
7070
3FE0
0F80
ENDCHAR

STARTCHAR igrave
ENCODING 236
SWIDTH 260 0
DWIDTH 6 0
BBX 6 19 0 0
BITMAP
C0
60
30
18
00
F0
F0
30
30
30
30
30
30
30
30
30
30
FC
FC
ENDCHAR

STARTCHAR iacute
ENCODING 237
SWIDTH 260 0
DWIDTH 6 0
BBX 6 19 0 0
BITMAP
0C
18
30
60
00
F0
F0
30
30
30
30
30
30
30
30
30
30
FC
FC
ENDCHAR

STARTCHAR icircumflex
ENCODING 238
SWIDTH 260 0
DWIDTH 6 0
BBX 8 19 -1 0
BITMAP
18
3C
66
C3
00
78
78
18
18
18
18
18
18
18
18
18
18
7E
7E
ENDCHAR

STARTCHAR idieresis
ENCODING 239
SWIDTH 260 0
DWIDTH 6 0
BBX 6 19 0 0
BITMAP
CC
CC
CC
00
00
F0
F0
30
30
30
30
30
30
30
30
30
30
FC
FC
ENDCHAR

STARTCHAR eth
ENCODING 240
SWIDTH 580 0
DWIDTH 14 0
BBX 13 19 0 0
BITMAP
6180
1E00
3C00
C700
0180
0FC0
3FE0
7070
6030
C018
C018
C018
C018
C018
C018
6030
7070
3FE0
0F80
ENDCHAR

STARTCHAR ntilde
ENCODING 241
SWIDTH 660 0
DWIDTH 17 0
BBX 16 19 0 0
BITMAP
0718
0FF0
18E0
0000
0000
F3E0
F7F8
3C1C
380C
300C
300C
300C
300C
300C
300C
300C
300C
FC3F
FC3F
ENDCHAR

STARTCHAR ograve
ENCODING 242
SWIDTH 580 0
DWIDTH 14 0
BBX 13 19 0 0
BITMAP
0C00
0600
0300
0180
0000
0F80
3FE0
7070
6030
C018
C018
C018
C018
C018
C018
6030
7070
3FE0
0F80
ENDCHAR

STARTCHAR oacute
ENCODING 243
SWIDTH 580 0
DWIDTH 14 0
BBX 13 19 0 0
BITMAP
0180
0300
0600
0C00
0000
0F80
3FE0
7070
6030
C018
C018
C018
C018
C018
C018
6030
7070
3FE0
0F80
ENDCHAR

STARTCHAR ocircumflex
ENCODING 244
SWIDTH 580 0
DWIDTH 14 0
BBX 13 19 0 0
BITMAP
0600
0F00
1980
30C0
0000
0F80
3FE0
7070
6030
C018
C018
C018
C018
C018
C018
6030
7070
3FE0
0F80
ENDCHAR

STARTCHAR otilde
ENCODING 245
SWIDTH 580 0
DWIDTH 14 0
BBX 13 19 0 0
BITMAP
1C60
3FC0
6380
0000
0000
0F80
3FE0
7070
6030
C018
C018
C018
C018
C018
C018
6030
7070
3FE0
0F80
ENDCHAR

STARTCHAR odieresis
ENCODING 246
SWIDTH 580 0
DWIDTH 14 0
BBX 13 19 0 0
BITMAP
1980
1980
1980
0000
0000
0F80
3FE0
7070
6030
C018
C018
C018
C018
C018
C018
6030
7070
3FE0
0F80
ENDCHAR

STARTCHAR divide
ENCODING 247
SWIDTH 660 0
DWIDTH 16 0
BBX 14 12 1 2
BITMAP
0300
0300
0300
0000
0000
FFFC
FFFC
0000
0000
0300
0300
0300
ENDCHAR

STARTCHAR oslash
ENCODING 248
SWIDTH 580 0
DWIDTH 14 0
BBX 13 14 0 0
BITMAP
0F98
3FF8
7070
6070
C0D8
C198
C318
C618
CC18
D818
7030
7070
FFE0
CF80
ENDCHAR

STARTCHAR ugrave
ENCODING 249
SWIDTH 640 0
DWIDTH 16 0
BBX 15 19 0 0
BITMAP
0C00
0600
0300
0180
0000
F078
F078
3018
3018
3018
3018
3018
3018
3018
3018
3038
3878
1FDE
079E
ENDCHAR

STARTCHAR uacute
ENCODING 250
SWIDTH 640 0
DWIDTH 16 0
BBX 15 19 0 0
BITMAP
00C0
0180
0300
0600
0000
F078
F078
3018
3018
3018
3018
3018
3018
3018
3018
3038
3878
1FDE
079E
ENDCHAR

STARTCHAR ucircumflex
ENCODING 251
SWIDTH 640 0
DWIDTH 16 0
BBX 15 19 0 0
BITMAP
0300
0780
0CC0
1860
0000
F078
F078
3018
3018
3018
3018
3018
3018
3018
3018
3038
3878
1FDE
079E
ENDCHAR

STARTCHAR udieresis
ENCODING 252
SWIDTH 640 0
DWIDTH 16 0
BBX 15 19 0 0
BITMAP
0CC0
0CC0
0CC0
0000
0000
F078
F078
3018
3018
3018
3018
3018
3018
3018
3018
3038
3878
1FDE
079E
ENDCHAR

STARTCHAR yacute
ENCODING 253
SWIDTH 640 0
DWIDTH 16 0
BBX 15 23 0 -4
BITMAP
0030
0060
00C0
0180
0000
FC7E
FC7E
3018
3018
1830
1830
0C60
0C60
06C0
06C0
0380
0380
0300
0300
0600
0600
1F80
1F80
ENDCHAR

STARTCHAR thorn
ENCODING 254
SWIDTH 660 0
DWIDTH 16 0
BBX 15 22 0 -4
BITMAP
F000
F000
3000
3000
33E0
37F8
3C1C
380C
3006
3006
3006
3006
3006
3006
380C
3C1C
37F8
33E0
3000
3000
FC00
FC00
ENDCHAR

STARTCHAR ydieresis
ENCODING 255
SWIDTH 640 0
DWIDTH 16 0
BBX 15 23 0 -4
BITMAP
0CC0
0CC0
0CC0
0000
0000
FC7E
FC7E
3018
3018
1830
1830
0C60
0C60
06C0
06C0
0380
0380
0300
0300
0600
0600
1F80
1F80
ENDCHAR
ENDFONT
